<svg xmlns="http://www.w3.org/2000/svg" width="1024" height="1024" viewBox="0 0 1024 1024">
<g>
<path d="M 501.79 888.41 C488.30,891.19 479.94,890.16 466.57,884.03 C454.31,878.42 445.07,867.20 440.00,851.77 C437.97,845.60 437.92,843.00 436.98,692.50 C436.46,608.35 435.88,535.58 435.71,530.79 C435.34,520.70 434.51,519.33 426.87,516.04 C424.12,514.86 418.19,511.73 413.69,509.09 C409.19,506.45 400.33,501.46 394.00,497.99 C379.97,490.31 340.32,468.12 297.50,444.00 C290.90,440.29 277.62,432.85 268.00,427.48 C232.71,407.79 225.34,403.67 217.56,399.25 C207.95,393.81 205.52,392.45 196.50,387.52 C192.65,385.41 185.90,381.57 181.50,378.99 C177.10,376.41 169.51,372.18 164.62,369.59 C149.69,361.68 144.19,355.99 137.33,341.34 C128.77,323.07 133.16,301.45 148.81,284.83 C161.78,271.06 182.83,265.15 200.33,270.37 C205.51,271.91 229.95,284.53 248.00,294.98 C251.57,297.05 268.23,306.30 285.00,315.53 C301.77,324.77 319.10,334.45 323.50,337.05 C327.90,339.65 336.45,344.46 342.50,347.74 C358.25,356.26 390.95,374.43 401.50,380.52 C406.45,383.37 417.02,389.32 425.00,393.73 C432.98,398.15 443.77,404.13 449.00,407.03 C454.23,409.92 468.62,417.91 481.00,424.77 C524.02,448.62 526.74,450.65 534.81,465.06 C535.62,466.49 536.32,467.57 536.93,468.69 C541.44,476.95 541.17,487.81 542.09,664.00 C542.73,787.27 542.70,847.05 542.01,850.32 C540.19,858.90 535.97,866.07 528.02,874.08 C519.44,882.73 513.45,886.00 501.79,888.41 ZM 472.69 884.95 C479.19,887.39 482.01,887.89 489.50,887.91 C506.34,887.95 516.30,883.92 527.16,872.69 C531.41,868.30 535.31,863.04 537.28,859.02 L 540.50 852.50 L 540.21 669.50 C540.02,547.89 539.57,484.65 538.88,481.00 C537.36,472.99 530.39,459.30 525.31,454.37 C520.02,449.23 506.89,440.44 497.36,435.66 C493.43,433.69 485.78,429.51 480.36,426.36 C468.18,419.29 464.27,417.14 451.00,410.19 C445.23,407.16 439.11,403.64 437.42,402.36 C435.73,401.07 428.70,397.16 421.80,393.67 C414.90,390.18 407.96,386.42 406.38,385.33 C403.49,383.33 395.45,378.77 374.00,366.98 C367.67,363.50 358.00,358.09 352.50,354.97 C347.00,351.84 339.58,347.72 336.00,345.81 C332.42,343.91 323.11,338.67 315.29,334.17 C307.48,329.68 300.83,326.00 300.51,326.00 C300.20,326.00 293.99,322.56 286.72,318.36 C279.45,314.16 267.88,307.80 261.00,304.23 C254.12,300.66 247.81,297.14 246.97,296.41 C244.80,294.53 236.53,289.99 221.57,282.46 C214.46,278.88 208.11,275.51 207.46,274.97 C204.54,272.55 194.35,270.00 187.59,270.01 C175.91,270.02 159.63,276.14 152.16,283.32 C143.17,291.97 136.39,305.16 135.22,316.31 C134.08,327.10 135.32,333.83 140.22,343.62 C146.10,355.36 152.93,362.21 164.52,367.95 C169.46,370.40 175.98,373.96 179.00,375.86 C182.02,377.76 189.68,382.11 196.00,385.53 C208.85,392.48 212.15,394.33 219.79,398.86 C222.71,400.59 225.28,402.00 225.52,402.00 C225.75,402.00 229.44,404.08 233.72,406.61 C238.00,409.15 246.68,414.04 253.00,417.49 C273.60,428.70 299.44,443.18 302.00,444.95 C303.38,445.89 308.77,448.83 314.00,451.47 C319.23,454.11 326.65,458.31 330.50,460.79 C334.35,463.28 342.45,467.89 348.50,471.04 C362.89,478.53 376.12,485.90 378.00,487.47 C378.83,488.16 385.17,491.71 392.11,495.36 C399.04,499.01 409.54,504.90 415.43,508.44 C421.33,511.98 427.43,515.16 429.00,515.50 C430.57,515.85 432.96,517.23 434.31,518.59 L 436.77 521.04 L 437.38 552.27 C437.72,569.45 438.44,642.90 438.99,715.50 C439.97,845.85 440.19,853.02 443.26,856.79 C443.84,857.50 445.31,860.20 446.54,862.79 C451.32,872.92 459.79,880.10 472.69,884.95 ZM 505.83 363.37 C493.62,367.38 483.94,367.43 470.74,363.55 C456.68,359.41 442.92,344.96 437.89,329.07 C435.86,322.65 435.80,320.18 435.26,223.40 C434.71,124.32 434.71,124.31 436.84,117.28 C440.60,104.93 451.17,91.98 461.95,86.53 C485.69,74.52 512.64,79.39 528.61,98.57 C533.24,104.12 535.30,107.82 538.27,115.91 C540.26,121.33 540.35,124.41 541.21,214.50 C541.70,265.65 541.88,311.55 541.61,316.50 C541.05,326.76 539.12,333.24 534.39,340.69 C526.87,352.56 518.48,359.21 505.83,363.37 ZM 644.12 456.56 C620.76,461.51 598.01,450.35 587.46,428.76 C579.71,412.92 579.41,398.66 586.50,384.30 C590.70,375.80 599.83,365.48 606.81,361.34 C609.39,359.80 612.67,357.86 614.11,357.03 C622.64,352.04 648.39,336.54 659.50,329.70 C666.65,325.29 674.53,320.57 677.00,319.19 C679.47,317.82 687.12,313.24 694.00,309.01 C700.88,304.78 712.80,297.57 720.50,293.00 C728.20,288.42 738.55,282.12 743.50,278.99 C759.69,268.78 774.93,260.75 780.77,259.38 C798.39,255.23 817.87,260.76 830.50,273.49 C840.31,283.38 846.01,297.34 845.99,311.43 C845.98,321.06 844.30,327.09 839.40,335.16 C833.54,344.80 826.76,350.88 812.00,359.68 C804.58,364.10 794.45,370.19 789.50,373.21 C784.55,376.22 775.55,381.62 769.50,385.20 C763.45,388.78 742.30,401.52 722.50,413.51 C661.40,450.51 654.31,454.40 644.12,456.56 ZM 811.26 715.58 C796.70,718.36 788.18,716.52 771.50,706.99 C754.78,697.43 720.96,678.47 713.00,674.20 C708.88,671.98 696.50,665.14 685.50,658.99 C674.50,652.85 661.22,645.54 656.00,642.75 C650.78,639.96 644.92,636.71 643.00,635.52 C641.08,634.33 634.15,630.47 627.62,626.95 C613.86,619.53 607.89,614.26 602.18,604.50 C595.17,592.52 593.15,578.51 596.55,565.46 C598.64,557.43 606.10,544.99 611.95,539.77 C623.03,529.87 638.99,524.24 652.50,525.46 C665.72,526.65 667.77,527.59 716.50,554.71 C746.86,571.60 760.36,579.08 778.50,589.01 C787.85,594.13 801.12,601.46 808.00,605.30 C814.88,609.13 823.88,614.10 828.00,616.33 C836.17,620.75 845.31,629.26 849.43,636.29 C857.94,650.82 859.14,670.86 852.29,684.44 C843.18,702.53 830.95,711.81 811.26,715.58 ZM 476.00 363.47 C487.38,366.02 502.68,364.06 514.56,358.51 C523.10,354.53 534.00,340.83 538.03,329.00 L 540.25 322.50 L 539.17 124.50 L 536.95 118.00 C533.43,107.72 530.51,102.68 524.81,97.05 C516.94,89.29 512.38,86.50 503.50,84.02 C492.76,81.01 483.48,80.95 474.00,83.81 C462.81,87.18 458.97,89.43 451.84,96.81 C443.92,104.99 440.29,111.03 437.97,119.87 C436.33,126.09 436.23,132.00 436.62,196.56 C436.86,235.03 437.22,279.55 437.42,295.50 C437.89,332.16 438.07,332.82 451.21,347.98 C459.43,357.47 465.11,361.02 476.00,363.47 ZM 620.50 454.61 C626.03,456.35 639.43,456.30 646.28,454.52 C649.42,453.70 655.92,450.83 660.74,448.14 C665.56,445.45 671.97,441.94 675.00,440.36 C678.03,438.77 684.31,435.00 688.97,431.98 C693.63,428.97 702.75,423.35 709.23,419.50 C715.72,415.65 733.96,404.68 749.76,395.11 C765.57,385.55 782.78,375.26 788.00,372.25 C793.22,369.24 799.76,365.30 802.52,363.49 C805.28,361.68 809.93,358.88 812.86,357.26 C824.35,350.91 829.96,345.93 836.11,336.59 C843.28,325.71 844.41,322.13 844.35,310.50 C844.31,302.82 843.84,300.32 841.14,293.50 C834.36,276.32 825.00,267.53 807.57,261.97 C801.70,260.10 799.02,259.82 790.04,260.19 C783.12,260.48 778.41,261.17 776.47,262.19 C773.69,263.65 764.58,268.73 750.50,276.67 C747.20,278.53 740.45,282.74 735.50,286.01 C730.55,289.29 721.55,294.70 715.50,298.04 C709.45,301.38 699.70,307.12 693.83,310.80 C687.97,314.49 680.09,319.27 676.33,321.44 C672.58,323.60 665.53,328.01 660.68,331.24 C655.83,334.46 649.08,338.50 645.68,340.21 C642.28,341.93 633.65,347.01 626.50,351.50 C619.35,356.00 611.70,360.52 609.50,361.54 C607.30,362.56 602.57,366.35 598.99,369.95 C591.79,377.20 585.89,387.76 583.92,396.93 C582.28,404.57 583.19,415.49 585.91,421.00 C587.14,423.48 589.00,427.75 590.05,430.50 C593.54,439.63 607.17,450.43 620.50,454.61 ZM 788.87 713.68 C800.31,716.92 822.27,713.00 832.66,705.88 C838.79,701.67 845.48,693.55 850.27,684.50 L 854.50 676.50 L 854.50 663.50 C854.50,650.97 854.39,650.26 851.32,643.76 C848.23,637.22 841.18,627.17 837.37,623.88 C836.34,622.99 831.45,620.13 826.50,617.51 C821.55,614.90 817.05,612.41 816.50,611.98 C815.26,611.02 788.14,596.05 778.00,590.72 C773.88,588.56 767.58,585.10 764.00,583.03 C750.44,575.18 735.78,567.00 735.27,567.00 C734.38,567.00 710.59,553.83 709.00,552.45 C708.17,551.73 701.31,548.02 693.75,544.20 C686.19,540.37 679.44,536.79 678.75,536.23 C678.06,535.67 674.26,533.58 670.31,531.57 C663.93,528.34 661.99,527.85 653.16,527.32 C641.12,526.58 636.79,527.54 624.53,533.62 C613.67,539.01 610.27,542.14 604.55,551.99 C598.24,562.85 597.00,567.36 597.02,579.28 C597.05,591.11 598.60,595.90 606.18,607.62 C611.56,615.92 614.55,618.39 627.75,625.45 C633.11,628.32 640.42,632.37 644.00,634.45 C647.58,636.54 656.52,641.36 663.88,645.16 C671.23,648.97 679.23,653.44 681.65,655.10 C684.06,656.76 688.84,659.48 692.27,661.14 C695.70,662.80 701.42,665.96 705.00,668.15 C708.58,670.35 714.88,673.80 719.00,675.84 C723.12,677.87 730.22,681.77 734.78,684.51 C745.78,691.14 752.86,695.12 762.50,700.11 C766.90,702.38 773.59,706.07 777.37,708.31 C781.15,710.54 786.32,712.96 788.87,713.68 Z" fill="rgb(230,127,92)" data-index="0" style="opacity: 1;"></path>
<path d="M 472.69 884.95 C459.79,880.10 451.32,872.92 446.54,862.79 C445.31,860.20 443.84,857.50 443.26,856.79 C440.19,853.02 439.97,845.85 438.99,715.50 C438.44,642.90 437.72,569.45 437.38,552.27 L 436.77 521.04 L 434.31 518.59 C432.96,517.23 430.57,515.85 429.00,515.50 C427.43,515.16 421.33,511.98 415.43,508.44 C409.54,504.90 399.04,499.01 392.11,495.36 C385.17,491.71 378.83,488.16 378.00,487.47 C376.12,485.90 362.89,478.53 348.50,471.04 C342.45,467.89 334.35,463.28 330.50,460.79 C326.65,458.31 319.23,454.11 314.00,451.47 C308.77,448.83 303.38,445.89 302.00,444.95 C299.44,443.18 273.60,428.70 253.00,417.49 C246.68,414.04 238.00,409.15 233.72,406.61 C229.44,404.08 225.75,402.00 225.52,402.00 C225.28,402.00 222.71,400.59 219.79,398.86 C212.15,394.33 208.85,392.48 196.00,385.53 C189.68,382.11 182.02,377.76 179.00,375.86 C175.98,373.96 169.46,370.40 164.52,367.95 C152.93,362.21 146.10,355.36 140.22,343.62 C135.32,333.83 134.08,327.10 135.22,316.31 C136.39,305.16 143.17,291.97 152.16,283.32 C159.63,276.14 175.91,270.02 187.59,270.01 C194.35,270.00 204.54,272.55 207.46,274.97 C208.11,275.51 214.46,278.88 221.57,282.46 C236.53,289.99 244.80,294.53 246.97,296.41 C247.81,297.14 254.12,300.66 261.00,304.23 C267.88,307.80 279.45,314.16 286.72,318.36 C293.99,322.56 300.20,326.00 300.51,326.00 C300.83,326.00 307.48,329.68 315.29,334.17 C323.11,338.67 332.42,343.91 336.00,345.81 C339.58,347.72 347.00,351.84 352.50,354.97 C358.00,358.09 367.67,363.50 374.00,366.98 C395.45,378.77 403.49,383.33 406.38,385.33 C407.96,386.42 414.90,390.18 421.80,393.67 C428.70,397.16 435.73,401.07 437.42,402.36 C439.11,403.64 445.23,407.16 451.00,410.19 C464.27,417.14 468.18,419.29 480.36,426.36 C485.78,429.51 493.43,433.69 497.36,435.66 C506.89,440.44 520.02,449.23 525.31,454.37 C530.39,459.30 537.36,472.99 538.88,481.00 C539.57,484.65 540.02,547.89 540.21,669.50 L 540.50 852.50 L 537.28 859.02 C535.31,863.04 531.41,868.30 527.16,872.69 C516.30,883.92 506.34,887.95 489.50,887.91 C482.01,887.89 479.19,887.39 472.69,884.95 ZM 476.00 363.47 C465.11,361.02 459.43,357.47 451.21,347.98 C438.07,332.82 437.89,332.16 437.42,295.50 C437.22,279.55 436.86,235.03 436.62,196.56 C436.23,132.00 436.33,126.09 437.97,119.87 C440.29,111.03 443.92,104.99 451.84,96.81 C458.97,89.43 462.81,87.18 474.00,83.81 C483.48,80.95 492.76,81.01 503.50,84.02 C512.38,86.50 516.94,89.29 524.81,97.05 C530.51,102.68 533.43,107.72 536.95,118.00 L 539.17 124.50 L 540.25 322.50 L 538.03 329.00 C534.00,340.83 523.10,354.53 514.56,358.51 C502.68,364.06 487.38,366.02 476.00,363.47 ZM 620.50 454.61 C607.17,450.43 593.54,439.63 590.05,430.50 C589.00,427.75 587.14,423.48 585.91,421.00 C583.19,415.49 582.28,404.57 583.92,396.93 C585.89,387.76 591.79,377.20 598.99,369.95 C602.57,366.35 607.30,362.56 609.50,361.54 C611.70,360.52 619.35,356.00 626.50,351.50 C633.65,347.01 642.28,341.93 645.68,340.21 C649.08,338.50 655.83,334.46 660.68,331.24 C665.53,328.01 672.58,323.60 676.33,321.44 C680.09,319.27 687.97,314.49 693.83,310.80 C699.70,307.12 709.45,301.38 715.50,298.04 C721.55,294.70 730.55,289.29 735.50,286.01 C740.45,282.74 747.20,278.53 750.50,276.67 C764.58,268.73 773.69,263.65 776.47,262.19 C778.41,261.17 783.12,260.48 790.04,260.19 C799.02,259.82 801.70,260.10 807.57,261.97 C825.00,267.53 834.36,276.32 841.14,293.50 C843.84,300.32 844.31,302.82 844.35,310.50 C844.41,322.13 843.28,325.71 836.11,336.59 C829.96,345.93 824.35,350.91 812.86,357.26 C809.93,358.88 805.28,361.68 802.52,363.49 C799.76,365.30 793.22,369.24 788.00,372.25 C782.78,375.26 765.57,385.55 749.76,395.11 C733.96,404.68 715.72,415.65 709.23,419.50 C702.75,423.35 693.63,428.97 688.97,431.98 C684.31,435.00 678.03,438.77 675.00,440.36 C671.97,441.94 665.56,445.45 660.74,448.14 C655.92,450.83 649.42,453.70 646.28,454.52 C639.43,456.30 626.03,456.35 620.50,454.61 ZM 788.87 713.68 C786.32,712.96 781.15,710.54 777.37,708.31 C773.59,706.07 766.90,702.38 762.50,700.11 C752.86,695.12 745.78,691.14 734.78,684.51 C730.22,681.77 723.12,677.87 719.00,675.84 C714.88,673.80 708.58,670.35 705.00,668.15 C701.42,665.96 695.70,662.80 692.27,661.14 C688.84,659.48 684.06,656.76 681.65,655.10 C679.23,653.44 671.23,648.97 663.88,645.16 C656.52,641.36 647.58,636.54 644.00,634.45 C640.42,632.37 633.11,628.32 627.75,625.45 C614.55,618.39 611.56,615.92 606.18,607.62 C598.60,595.90 597.05,591.11 597.02,579.28 C597.00,567.36 598.24,562.85 604.55,551.99 C610.27,542.14 613.67,539.01 624.53,533.62 C636.79,527.54 641.12,526.58 653.16,527.32 C661.99,527.85 663.93,528.34 670.31,531.57 C674.26,533.58 678.06,535.67 678.75,536.23 C679.44,536.79 686.19,540.37 693.75,544.20 C701.31,548.02 708.17,551.73 709.00,552.45 C710.59,553.83 734.38,567.00 735.27,567.00 C735.78,567.00 750.44,575.18 764.00,583.03 C767.58,585.10 773.88,588.56 778.00,590.72 C788.14,596.05 815.26,611.02 816.50,611.98 C817.05,612.41 821.55,614.90 826.50,617.51 C831.45,620.13 836.34,622.99 837.37,623.88 C841.18,627.17 848.23,637.22 851.32,643.76 C854.39,650.26 854.50,650.97 854.50,663.50 L 854.50 676.50 L 850.27 684.50 C845.48,693.55 838.79,701.67 832.66,705.88 C822.27,713.00 800.31,716.92 788.87,713.68 Z" fill="rgb(230,91,41)" data-index="1" style="opacity: 1;"></path>
<path d="M 505.42 889.33 C489.85,893.19 478.85,891.90 463.93,884.44 C451.55,878.25 439.28,861.10 437.11,846.94 C436.52,843.11 435.84,784.04 435.43,701.00 C435.05,624.28 434.46,552.50 434.12,541.50 L 433.50 521.50 L 428.00 518.64 C424.98,517.07 417.10,512.72 410.50,508.98 C403.90,505.24 392.42,498.83 385.00,494.74 C372.47,487.84 353.50,477.20 315.00,455.49 C306.48,450.68 292.98,443.15 285.00,438.74 C277.02,434.34 266.00,428.15 260.50,424.97 C255.00,421.80 245.32,416.38 239.00,412.93 C224.21,404.86 216.05,400.31 197.00,389.50 C188.48,384.67 175.43,377.34 168.00,373.22 C151.22,363.91 146.89,360.44 141.33,351.84 C134.26,340.91 132.00,333.72 132.00,322.13 C132.00,310.85 133.55,305.07 139.38,294.65 C144.79,284.98 152.06,278.12 162.12,273.20 C172.08,268.33 177.10,267.06 186.54,267.02 C199.65,266.98 204.17,268.87 243.50,290.80 C252.85,296.02 264.77,302.63 270.00,305.49 C275.23,308.36 290.98,317.15 305.00,325.02 C319.02,332.90 334.33,341.43 339.00,343.99 C343.67,346.54 355.38,353.06 365.00,358.47 C374.62,363.89 384.30,369.29 386.50,370.48 C395.80,375.52 409.57,383.29 410.50,384.02 C411.05,384.46 416.40,387.38 422.39,390.52 C428.38,393.66 435.36,397.49 437.89,399.04 C441.93,401.51 456.31,409.54 475.50,420.05 C478.80,421.86 483.09,424.33 485.04,425.55 C486.98,426.76 491.48,429.21 495.04,430.98 C507.16,437.04 521.46,446.46 526.99,452.05 C534.32,459.46 540.64,471.93 541.97,481.60 C542.55,485.79 543.17,547.16 543.48,631.10 C543.77,709.42 544.24,788.40 544.52,806.60 C545.11,844.48 544.51,851.22 539.64,861.51 C533.44,874.62 519.71,885.78 505.42,889.33 ZM 501.79 888.41 C513.45,886.00 519.44,882.73 528.02,874.08 C535.97,866.07 540.19,858.90 542.01,850.32 C542.70,847.05 542.73,787.27 542.09,664.00 C541.17,487.81 541.44,476.95 536.93,468.69 C536.32,467.57 535.62,466.49 534.81,465.06 C526.74,450.65 524.02,448.62 481.00,424.77 C468.62,417.91 454.23,409.92 449.00,407.03 C443.77,404.13 432.98,398.15 425.00,393.73 C417.02,389.32 406.45,383.37 401.50,380.52 C390.95,374.43 358.25,356.26 342.50,347.74 C336.45,344.46 327.90,339.65 323.50,337.05 C319.10,334.45 301.77,324.77 285.00,315.53 C268.23,306.30 251.57,297.05 248.00,294.98 C229.95,284.53 205.51,271.91 200.33,270.37 C182.83,265.15 161.78,271.06 148.81,284.83 C133.16,301.45 128.77,323.07 137.33,341.34 C144.19,355.99 149.69,361.68 164.62,369.59 C169.51,372.18 177.10,376.41 181.50,378.99 C185.90,381.57 192.65,385.41 196.50,387.52 C205.52,392.45 207.95,393.81 217.56,399.25 C225.34,403.67 232.71,407.79 268.00,427.48 C277.62,432.85 290.90,440.29 297.50,444.00 C340.32,468.12 379.97,490.31 394.00,497.99 C400.33,501.46 409.19,506.45 413.69,509.09 C418.19,511.73 424.12,514.86 426.87,516.04 C434.51,519.33 435.34,520.70 435.71,530.79 C435.88,535.58 436.46,608.35 436.98,692.50 C437.92,843.00 437.97,845.60 440.00,851.77 C445.07,867.20 454.31,878.42 466.57,884.03 C479.94,890.16 488.30,891.19 501.79,888.41 ZM 645.11 458.00 C639.75,459.00 626.30,459.18 622.50,458.31 C617.42,457.15 609.38,453.67 604.36,450.46 C596.62,445.50 591.97,440.58 587.55,432.67 C577.73,415.09 577.35,398.73 586.35,381.62 C591.18,372.45 599.10,364.07 607.65,359.09 C610.87,357.21 618.45,352.66 624.50,348.98 C630.55,345.29 637.75,341.02 640.50,339.48 C643.25,337.94 648.42,334.87 652.00,332.66 C666.54,323.65 695.09,306.39 704.00,301.21 C709.22,298.18 720.03,291.66 728.00,286.72 C756.00,269.37 771.40,260.67 777.42,258.79 C786.84,255.86 800.54,256.08 809.84,259.31 C827.59,265.48 838.23,275.94 844.59,293.46 C847.50,301.46 848.50,311.87 847.10,319.42 C845.62,327.43 839.97,338.51 833.91,345.31 C828.61,351.26 817.29,358.65 775.00,383.77 C767.58,388.18 739.67,404.91 713.00,420.95 C660.35,452.62 653.25,456.49 645.11,458.00 ZM 507.13 364.52 C497.93,367.74 485.05,368.55 476.00,366.50 C458.14,362.45 442.47,348.25 436.82,331.00 C434.74,324.63 434.67,322.53 433.80,226.53 L 433.74 220.00 C432.93,131.74 432.83,120.87 437.02,112.04 C437.71,110.59 438.52,109.19 439.46,107.51 C449.88,88.87 467.50,78.48 488.50,78.59 C512.71,78.72 532.39,93.04 539.76,115.90 L 542.21 123.50 L 542.50 328.50 L 537.71 337.64 C530.00,352.33 522.07,359.30 507.13,364.52 ZM 822.00 714.45 C816.07,716.63 812.30,717.29 804.00,717.60 C791.27,718.09 785.65,716.72 775.02,710.57 C770.89,708.18 761.42,702.87 754.00,698.78 C728.80,684.88 710.53,674.69 701.19,669.34 C696.08,666.40 691.64,664.00 691.33,664.00 C691.03,664.00 687.12,661.82 682.64,659.15 C678.16,656.48 670.22,652.01 665.00,649.23 C648.38,640.38 646.74,639.49 634.00,632.40 C627.12,628.57 620.19,624.78 618.59,623.97 C609.81,619.54 598.77,605.02 595.41,593.50 C592.91,584.92 593.14,570.42 595.90,562.26 C601.59,545.45 614.69,532.48 632.14,526.38 C644.72,521.99 662.71,523.47 674.31,529.87 C678.95,532.43 693.01,540.10 707.75,548.12 C710.64,549.69 714.69,552.03 716.75,553.31 C718.81,554.60 725.00,558.06 730.50,561.00 C736.00,563.94 748.60,570.82 758.50,576.29 C768.40,581.75 781.90,589.19 788.50,592.82 C833.79,617.69 837.35,619.86 843.29,626.26 C849.93,633.41 855.32,643.39 857.05,651.73 C857.75,655.10 858.04,661.61 857.76,667.49 C857.21,679.01 855.01,685.03 847.50,695.56 C843.33,701.39 835.40,709.00 833.48,709.00 C833.03,709.00 831.95,709.60 831.08,710.34 C830.21,711.08 826.12,712.93 822.00,714.45 ZM 505.83 363.37 C518.48,359.21 526.87,352.56 534.39,340.69 C539.12,333.24 541.05,326.76 541.61,316.50 C541.88,311.55 541.70,265.65 541.21,214.50 C540.35,124.41 540.26,121.33 538.27,115.91 C535.30,107.82 533.24,104.12 528.61,98.57 C512.64,79.39 485.69,74.52 461.95,86.53 C451.17,91.98 440.60,104.93 436.84,117.28 C434.71,124.31 434.71,124.32 435.26,223.40 C435.80,320.18 435.86,322.65 437.89,329.07 C442.92,344.96 456.68,359.41 470.74,363.55 C483.94,367.43 493.62,367.38 505.83,363.37 ZM 644.12 456.56 C654.31,454.40 661.40,450.51 722.50,413.51 C742.30,401.52 763.45,388.78 769.50,385.20 C775.55,381.62 784.55,376.22 789.50,373.21 C794.45,370.19 804.58,364.10 812.00,359.68 C826.76,350.88 833.54,344.80 839.40,335.16 C844.30,327.09 845.98,321.06 845.99,311.43 C846.01,297.34 840.31,283.38 830.50,273.49 C817.87,260.76 798.39,255.23 780.77,259.38 C774.93,260.75 759.69,268.78 743.50,278.99 C738.55,282.12 728.20,288.42 720.50,293.00 C712.80,297.57 700.88,304.78 694.00,309.01 C687.12,313.24 679.47,317.82 677.00,319.19 C674.53,320.57 666.65,325.29 659.50,329.70 C648.39,336.54 622.64,352.04 614.11,357.03 C612.67,357.86 609.39,359.80 606.81,361.34 C599.83,365.48 590.70,375.80 586.50,384.30 C579.41,398.66 579.71,412.92 587.46,428.76 C598.01,450.35 620.76,461.51 644.12,456.56 ZM 811.26 715.58 C830.95,711.81 843.18,702.53 852.29,684.44 C859.14,670.86 857.94,650.82 849.43,636.29 C845.31,629.26 836.17,620.75 828.00,616.33 C823.88,614.10 814.88,609.13 808.00,605.30 C801.12,601.46 787.85,594.13 778.50,589.01 C760.36,579.08 746.86,571.60 716.50,554.71 C667.77,527.59 665.72,526.65 652.50,525.46 C638.99,524.24 623.03,529.87 611.95,539.77 C606.10,544.99 598.64,557.43 596.55,565.46 C593.15,578.51 595.17,592.52 602.18,604.50 C607.89,614.26 613.86,619.53 627.62,626.95 C634.15,630.47 641.08,634.33 643.00,635.52 C644.92,636.71 650.78,639.96 656.00,642.75 C661.22,645.54 674.50,652.85 685.50,658.99 C696.50,665.14 708.88,671.98 713.00,674.20 C720.96,678.47 754.78,697.43 771.50,706.99 C788.18,716.52 796.70,718.36 811.26,715.58 Z" fill="rgb(244,189,168)" data-index="2" style="opacity: 1;"></path>

</g>
</svg>